<?xml version="1.0" standalone="no"?>
<!DOCTYPE svg PUBLIC "-//W3C//DTD SVG 20010904//EN"
 "http://www.w3.org/TR/2001/REC-SVG-20010904/DTD/svg10.dtd">
<svg version="1.0" xmlns="http://www.w3.org/2000/svg"
 width="1000.000000pt" height="1000.000000pt" viewBox="0 0 1000.000000 1000.000000"
 preserveAspectRatio="xMidYMid meet">
<metadata>
Created by potrace 1.11, written by Peter Selinger 2001-2013
</metadata>
<g transform="translate(0.000000,1000.000000) scale(0.100000,-0.100000)"
fill="#000000" stroke="none">
<path d="M0 5000 l0 -5000 5000 0 5000 0 0 5000 0 5000 -5000 0 -5000 0 0
-5000z m5617 2694 c99 -48 123 -179 47 -263 l-34 -38 0 -563 0 -562 -34 -34
-34 -34 -211 0 -212 0 3 78 3 77 163 3 162 2 0 516 0 515 -30 26 c-58 49 -76
125 -46 196 35 82 139 120 223 81z m-1270 -294 c67 -30 103 -107 89 -185 -4
-21 -23 -52 -46 -77 l-40 -41 0 -124 0 -123 330 0 c276 0 336 -3 360 -15 63
-33 60 32 60 -1152 l0 -1078 23 -40 c43 -77 147 -125 237 -110 55 9 130 62
157 110 l23 40 0 688 c0 755 -2 730 60 762 21 11 62 15 160 15 l130 0 0 371 0
371 -24 19 c-79 62 -70 199 16 261 45 32 143 33 185 2 48 -36 73 -82 73 -136
0 -57 -17 -96 -60 -131 l-30 -26 0 -416 0 -417 -31 -29 -31 -29 -138 0 c-111
0 -139 -3 -143 -15 -9 -21 -9 -661 -1 -1009 l7 -299 31 -40 c86 -113 261 -123
358 -20 58 61 58 57 58 601 l0 498 -31 23 c-121 90 -48 291 106 291 124 0 202
-128 146 -238 -12 -23 -30 -48 -41 -54 -20 -13 -20 -26 -20 -537 l0 -524 -42
-76 c-23 -42 -235 -420 -471 -841 -236 -421 -502 -893 -589 -1050 -88 -157
-167 -291 -176 -297 -22 -18 -56 -16 -75 5 -8 9 -297 521 -641 1137 l-626
1120 0 643 0 642 80 0 80 0 0 -626 c0 -704 -4 -662 77 -733 104 -92 261 -73
351 43 l22 29 0 669 0 669 -427 -1 -428 -2 -32 36 -33 36 0 387 c0 376 -1 389
-20 401 -11 6 -29 31 -41 54 -28 55 -22 123 14 171 95 125 297 61 297 -95 0
-57 -17 -96 -60 -131 l-30 -26 0 -335 0 -335 430 -3 430 -3 30 -31 31 -31 0
-697 c0 -448 4 -707 10 -724 6 -15 25 -42 42 -60 105 -110 283 -102 373 15
l32 41 6 374 c4 205 6 677 4 1048 l-3 675 -340 5 c-187 3 -348 9 -358 14 -39
19 -47 57 -47 234 l0 169 -26 24 c-38 35 -54 72 -54 124 0 126 120 199 237
145z m543 -1120 l0 -80 -514 0 -515 0 -3 -37 -3 -38 -77 -3 -78 -3 0 84 c0 90
16 128 64 147 11 5 270 9 574 9 l552 1 0 -80z"/>
<path d="M5506 7584 c-9 -8 -16 -26 -16 -39 0 -13 7 -31 16 -39 33 -34 94 -9
94 38 0 47 -62 73 -94 40z"/>
<path d="M4236 7294 c-19 -18 -21 -65 -4 -82 17 -17 64 -15 82 4 21 21 20 57
-2 77 -23 21 -56 22 -76 1z"/>
<path d="M5937 6992 c-22 -24 -21 -55 1 -75 37 -34 92 -11 92 38 0 50 -60 73
-93 37z"/>
<path d="M3437 6942 c-22 -24 -21 -55 1 -75 37 -34 92 -11 92 38 0 50 -60 73
-93 37z"/>
<path d="M6192 5818 c-18 -18 -14 -63 6 -81 52 -47 126 28 76 77 -18 19 -65
21 -82 4z"/>
<path d="M4975 4429 c-22 -22 -69 -54 -105 -72 -60 -30 -72 -32 -170 -32 -94
0 -111 3 -161 28 -31 15 -76 45 -100 66 l-44 39 -44 -39 c-23 -21 -68 -51
-100 -66 -49 -24 -68 -28 -154 -28 -82 0 -96 -2 -91 -15 9 -26 543 -1009 623
-1148 l76 -132 310 2 309 3 99 185 c136 255 534 994 568 1055 l28 50 -87 1
c-111 0 -181 26 -256 95 l-55 50 -37 -40 c-20 -23 -66 -55 -102 -73 -61 -30
-74 -33 -162 -33 -88 0 -101 3 -162 33 -36 18 -82 50 -102 72 -20 22 -37 40
-39 40 -2 0 -21 -18 -42 -41z"/>
<path d="M4661 3002 c9 -21 283 -491 286 -488 2 1 -42 113 -96 247 l-99 244
-47 3 c-26 2 -46 -1 -44 -6z"/>
</g>
</svg>
