<svg id="Vector" xmlns="http://www.w3.org/2000/svg" xmlns:xlink="http://www.w3.org/1999/xlink" width="547.902" height="420.991" viewBox="0 0 547.902 420.991">
  <defs>
    <linearGradient id="linear-gradient" x1="0.459" y1="0.999" x2="0.459" y2="-0.006" gradientUnits="objectBoundingBox">
      <stop offset="0" stop-color="gray" stop-opacity="0.251"/>
      <stop offset="0.54" stop-color="gray" stop-opacity="0.122"/>
      <stop offset="1" stop-color="gray" stop-opacity="0.102"/>
    </linearGradient>
  </defs>
  <ellipse id="Ellipse_8" data-name="Ellipse 8" cx="227.69" cy="17.679" rx="227.69" ry="17.679" transform="translate(23.374 336.381)" fill="#6c63ff" opacity="0.1"/>
  <g id="Group_3" data-name="Group 3" transform="translate(364.22 49.304)" opacity="0.1">
    <path id="Path_25" data-name="Path 25" d="M882.98,487.58c-1.361-4.131-6.879-6.033-12.322-4.243a13.268,13.268,0,0,0-2.266.98c-.348-.1-.707-.182-1.072-.246a12,12,0,0,0,.338-3.638,13.18,13.18,0,0,0,5.84-11.5,13.2,13.2,0,0,0,5.818-11.5,12.729,12.729,0,0,0,4.409-4.993c2.625-5.2,1.538-11.036-2.432-13.045s-9.322.579-11.947,5.775a12.693,12.693,0,0,0-1.409,6.509,13.2,13.2,0,0,0-5.818,11.5,13.2,13.2,0,0,0-5.818,11.5,13.2,13.2,0,0,0-5.84,11.508,12.73,12.73,0,0,0-4.409,4.993,13.632,13.632,0,0,0-1.114,3.075,11.351,11.351,0,0,0-2.379-2.534,13.586,13.586,0,0,0-.536-2.411c-1.789-5.448-6.589-8.77-10.715-7.409s-6.032,6.874-4.243,12.322a12.359,12.359,0,0,0,4.05,5.936,13.59,13.59,0,0,0,.536,2.411,11.788,11.788,0,0,0,5.438,6.831,12.447,12.447,0,0,0-.445,2.089,13.549,13.549,0,0,0-4.04,7.988,13.538,13.538,0,0,0-4.039,7.993,13.2,13.2,0,0,0-2.679,3.648c-2.63,5.2-1.543,11.042,2.427,13.045s9.322-.573,11.952-5.775a13.189,13.189,0,0,0,1.339-4.334,13.549,13.549,0,0,0,4.039-7.988,13.539,13.539,0,0,0,4.04-7.993,13.506,13.506,0,0,0,3.991-7.988,13.506,13.506,0,0,0,4.05-8,12.912,12.912,0,0,0,1.816-2.143,12.568,12.568,0,0,0,6.573-.413,13.273,13.273,0,0,0,2.266-.98,12.428,12.428,0,0,0,7.19-.257C881,496.516,884.336,491.716,882.98,487.58Z" transform="translate(-794.472 -283.564)" fill="#3f3d56"/>
    <g id="Group_1" data-name="Group 1" transform="translate(30.551 169.584)" opacity="0.1">
      <path id="Path_26" data-name="Path 26" d="M913.657,499.53A11.512,11.512,0,0,1,911.815,501a12.323,12.323,0,0,1-.595,4.516,14.049,14.049,0,0,0,1.125-1.838A13.2,13.2,0,0,0,913.657,499.53Z" transform="translate(-865.307 -481.384)"/>
      <path id="Path_27" data-name="Path 27" d="M924.517,478.06a11.51,11.51,0,0,1-1.843,1.473,12.325,12.325,0,0,1-.595,4.516,13.757,13.757,0,0,0,1.125-1.843A13.317,13.317,0,0,0,924.517,478.06Z" transform="translate(-870.349 -471.417)"/>
      <path id="Path_28" data-name="Path 28" d="M899.154,468.023a11.732,11.732,0,0,1,.091-2.363,13.354,13.354,0,0,0-2.561,3.52,13.718,13.718,0,0,0-.814,2A12.189,12.189,0,0,1,899.154,468.023Z" transform="translate(-858.181 -465.66)"/>
      <path id="Path_29" data-name="Path 29" d="M833.07,596.574a12.644,12.644,0,0,1,1.581-1.811,12.283,12.283,0,0,1,.466-2.143,13.465,13.465,0,0,0-1.227,1.988,13.712,13.712,0,0,0-.82,1.966Z" transform="translate(-829.025 -524.602)"/>
      <path id="Path_30" data-name="Path 30" d="M840.61,581.72a12.643,12.643,0,0,1,1.581-1.811,12.328,12.328,0,0,1,.445-2.089h0a13.764,13.764,0,0,0-1.179,1.923A14.329,14.329,0,0,0,840.61,581.72Z" transform="translate(-832.526 -517.731)"/>
      <path id="Path_31" data-name="Path 31" d="M903.015,520.89a11.157,11.157,0,0,1-1.838,1.468A12.036,12.036,0,0,1,900.84,526a10.073,10.073,0,0,1,1.071.247,13.262,13.262,0,0,1,2.266-.98c5.454-1.789,10.966.112,12.322,4.243a6.26,6.26,0,0,1,.171,3.214,7.358,7.358,0,0,0,1.768-7.04c-1.361-4.13-6.879-6.032-12.322-4.243a13.262,13.262,0,0,0-2.266.98c-.348-.1-.707-.182-1.071-.246C902.881,521.742,902.956,521.319,903.015,520.89Z" transform="translate(-860.488 -491.242)"/>
      <path id="Path_32" data-name="Path 32" d="M827.572,607.49a13.459,13.459,0,0,0-1.227,1.987,14.247,14.247,0,0,0-.825,2,13.121,13.121,0,0,1,1.607-1.821A12.277,12.277,0,0,1,827.572,607.49Z" transform="translate(-825.52 -531.506)"/>
      <path id="Path_33" data-name="Path 33" d="M888.244,489.493a11.781,11.781,0,0,1,.091-2.363,13.358,13.358,0,0,0-2.561,3.52,13.741,13.741,0,0,0-.814,2A12.189,12.189,0,0,1,888.244,489.493Z" transform="translate(-853.116 -475.628)"/>
      <path id="Path_34" data-name="Path 34" d="M874.936,577.679a13.012,13.012,0,0,1-.536,2.346,14.3,14.3,0,0,0,1.12-1.843,13.656,13.656,0,0,0,.873-2.143A12.99,12.99,0,0,1,874.936,577.679Z" transform="translate(-848.213 -516.905)"/>
      <path id="Path_35" data-name="Path 35" d="M859.856,607.5a12.957,12.957,0,0,1-.536,2.346A13.757,13.757,0,0,0,860.445,608a14.176,14.176,0,0,0,.873-2.143A12.635,12.635,0,0,1,859.856,607.5Z" transform="translate(-841.212 -530.749)"/>
      <path id="Path_36" data-name="Path 36" d="M867.4,592.607a12.936,12.936,0,0,1-.536,2.347,14.294,14.294,0,0,0,1.146-1.811A13.653,13.653,0,0,0,868.88,591,13.005,13.005,0,0,1,867.4,592.607Z" transform="translate(-844.713 -523.85)"/>
      <path id="Path_37" data-name="Path 37" d="M882.476,562.737a12.856,12.856,0,0,1-.536,2.341,13.854,13.854,0,0,0,1.12-1.838,13.663,13.663,0,0,0,.879-2.181A12.44,12.44,0,0,1,882.476,562.737Z" transform="translate(-851.713 -509.95)"/>
      <path id="Path_38" data-name="Path 38" d="M831.258,522.878c4.136-1.355,8.936,1.961,10.715,7.409a13.757,13.757,0,0,1,.536,2.416,11.347,11.347,0,0,1,2.379,2.534,13.681,13.681,0,0,1,1.114-3.08c.187-.364.391-.713.6-1.072a11.286,11.286,0,0,0-2.143-2.239,13.59,13.59,0,0,0-.536-2.411c-1.789-5.448-6.589-8.77-10.715-7.409a7.334,7.334,0,0,0-4.618,5.588A6.262,6.262,0,0,1,831.258,522.878Z" transform="translate(-826.945 -490.294)"/>
      <path id="Path_39" data-name="Path 39" d="M866.524,532.437a11.685,11.685,0,0,1,.1-2.357,13.251,13.251,0,0,0-2.566,3.52,13.409,13.409,0,0,0-.814,1.993A12.318,12.318,0,0,1,866.524,532.437Z" transform="translate(-843.032 -495.567)"/>
      <path id="Path_40" data-name="Path 40" d="M877.384,510.957a11.716,11.716,0,0,1,.1-2.357,13.132,13.132,0,0,0-2.566,3.514,13.726,13.726,0,0,0-.814,2,12.191,12.191,0,0,1,3.284-3.156Z" transform="translate(-848.074 -485.595)"/>
      <path id="Path_41" data-name="Path 41" d="M852.316,622.391a13,13,0,0,1-.536,2.352,13.789,13.789,0,0,0,2-4.013A12.616,12.616,0,0,1,852.316,622.391Z" transform="translate(-837.711 -537.652)"/>
    </g>
    <path id="Path_42" data-name="Path 42" d="M929.1,414.484a12.688,12.688,0,0,0,4.409-4.993c2.63-5.2,1.543-11.042-2.427-13.051s-9.322.579-11.953,5.781a12.687,12.687,0,0,0-1.4,6.525,13.2,13.2,0,0,0-5.818,11.5,12.65,12.65,0,0,0-4.409,4.993,13.241,13.241,0,0,0-.809,1.977,11.17,11.17,0,0,1,5.77-4.286,6.557,6.557,0,0,0,8.326,4.2,11.173,11.173,0,0,1,0,7.184A13.658,13.658,0,0,0,921.9,432.5a12.686,12.686,0,0,0,1.4-6.509,13.163,13.163,0,0,0,5.818-11.5Z" transform="translate(-832.652 -263.624)" fill="#3f3d56"/>
    <path id="Path_43" data-name="Path 43" d="M983.008,229.726a38.583,38.583,0,0,0,4.672-2.588l-17.32-12.654,20.358,10.484a38.643,38.643,0,0,0,14.465-26.953l-34.6.354,34.673-5.8a38.573,38.573,0,1,0-76.386,9.793,38.62,38.62,0,0,0-7.1,4.286l18.081,25.142-21.708-22.008a38.616,38.616,0,0,0-10.806,35.15,38.573,38.573,0,1,0,54.137,27.376,38.574,38.574,0,0,0,21.537-42.586Z" transform="translate(-822.614 -152.606)" fill="#6c63ff"/>
    <path id="Path_44" data-name="Path 44" d="M910.757,274.575a38.45,38.45,0,0,0-3.4,25.025,38.573,38.573,0,1,0,54.137,27.376C969.061,323.461,912.7,270.712,910.757,274.575Z" transform="translate(-822.624 -207.27)" opacity="0.1"/>
    <circle id="Ellipse_9" data-name="Ellipse 9" cx="5.727" cy="5.727" r="5.727" transform="translate(125.876)" fill="#6c63ff"/>
    <circle id="Ellipse_10" data-name="Ellipse 10" cx="5.727" cy="5.727" r="5.727" transform="translate(159.327 3.675)" fill="#6c63ff"/>
    <circle id="Ellipse_11" data-name="Ellipse 11" cx="5.727" cy="5.727" r="5.727" transform="translate(172.228 55.138)" fill="#6c63ff"/>
    <circle id="Ellipse_12" data-name="Ellipse 12" cx="5.727" cy="5.727" r="5.727" transform="translate(154.817 80.838)" fill="#6c63ff"/>
    <circle id="Ellipse_13" data-name="Ellipse 13" cx="5.727" cy="5.727" r="5.727" transform="translate(131.03 134.214)" fill="#6c63ff"/>
    <circle id="Ellipse_14" data-name="Ellipse 14" cx="5.727" cy="5.727" r="5.727" transform="translate(131.03 134.214)" opacity="0.1"/>
    <circle id="Ellipse_15" data-name="Ellipse 15" cx="5.727" cy="5.727" r="5.727" transform="translate(78.141 73.761)" fill="#6c63ff"/>
    <circle id="Ellipse_16" data-name="Ellipse 16" cx="5.727" cy="5.727" r="5.727" transform="translate(78.141 73.761)" opacity="0.1"/>
    <path id="Path_45" data-name="Path 45" d="M909.731,462.577c-3.809-1.923-4.961-7.372-2.738-12.4-.118.2-.23.413-.338.632-2.63,5.2-1.543,11.036,2.427,13.045s9.322-.579,11.947-5.775c.112-.214.209-.434.305-.648C918.609,462.207,913.535,464.506,909.731,462.577Z" transform="translate(-831.97 -288.89)" opacity="0.1"/>
    <path id="Path_46" data-name="Path 46" d="M899.171,483.452c-3.8-1.923-4.961-7.372-2.732-12.4-.118.209-.236.418-.343.632-2.63,5.2-1.543,11.042,2.427,13.045s9.322-.573,11.952-5.775c.107-.214.209-.429.305-.648C908.049,483.077,902.98,485.376,899.171,483.452Z" transform="translate(-827.068 -298.579)" opacity="0.1"/>
    <path id="Path_47" data-name="Path 47" d="M888.613,504.327c-3.8-1.923-4.961-7.372-2.732-12.4-.118.2-.236.413-.343.632-2.631,5.2-1.538,11.036,2.432,13.045s9.316-.579,11.947-5.775c.107-.214.209-.434.305-.648C897.5,503.957,892.422,506.256,888.613,504.327Z" transform="translate(-822.167 -308.273)" opacity="0.1"/>
    <path id="Path_48" data-name="Path 48" d="M878.09,525.257c-3.809-1.923-4.961-7.372-2.738-12.4-.118.2-.23.413-.343.627-2.625,5.2-1.538,11.042,2.432,13.051s9.322-.579,11.947-5.781c.113-.214.209-.429.306-.648C886.951,524.855,881.878,527.154,878.09,525.257Z" transform="translate(-817.28 -317.989)" opacity="0.1"/>
    <path id="Path_49" data-name="Path 49" d="M867.5,546.077c-3.809-1.923-4.961-7.372-2.738-12.4-.118.2-.23.412-.338.632-2.63,5.2-1.543,11.036,2.427,13.045s9.322-.579,11.952-5.775c.107-.214.209-.434.305-.648C876.389,545.707,871.3,548.006,867.5,546.077Z" transform="translate(-812.365 -327.655)" opacity="0.1"/>
    <path id="Path_50" data-name="Path 50" d="M856.942,566.957c-3.8-1.923-4.961-7.372-2.732-12.4-.118.2-.236.413-.343.627-2.63,5.2-1.543,11.042,2.432,13.051s9.3-.584,11.974-5.781c.107-.214.209-.429.305-.648C865.819,566.582,860.772,568.88,856.942,566.957Z" transform="translate(-807.462 -337.349)" opacity="0.1"/>
    <path id="Path_51" data-name="Path 51" d="M846.385,587.827c-3.8-1.923-4.961-7.372-2.732-12.4-.118.209-.23.413-.343.632-2.625,5.2-1.537,11.036,2.432,13.045s9.322-.579,11.947-5.775c.113-.214.209-.434.305-.648C855.267,587.457,850.194,589.756,846.385,587.827Z" transform="translate(-802.563 -347.038)" opacity="0.1"/>
    <path id="Path_52" data-name="Path 52" d="M835.831,608.707c-3.809-1.923-4.961-7.372-2.738-12.4q-.177.305-.338.627c-2.63,5.2-1.543,11.042,2.427,13.051s9.322-.579,11.953-5.781c.107-.214.2-.429.3-.648C844.709,608.332,839.635,610.609,835.831,608.707Z" transform="translate(-797.662 -356.732)" opacity="0.1"/>
    <path id="Path_53" data-name="Path 53" d="M828.891,622.422c-3.8-1.929-4.961-7.372-2.732-12.4-.118.209-.236.418-.343.632-2.631,5.2-1.543,11.042,2.427,13.045s9.322-.573,11.952-5.775c.107-.214.209-.429.305-.648C837.768,622.047,832.7,624.346,828.891,622.422Z" transform="translate(-794.44 -363.097)" opacity="0.1"/>
    <path id="Path_54" data-name="Path 54" d="M974.769,515.434a20.032,20.032,0,0,0,1.072-5.245,2.861,2.861,0,1,0-.434-5.69,19.988,19.988,0,0,0-10.522-13.56,2.863,2.863,0,0,0-5.111-2.582,2.68,2.68,0,0,0-.257.766,20.085,20.085,0,0,0-17.61,5.277,20.168,20.168,0,0,0-5.261-.155l-2.32,10.56-.139-10.179A20.047,20.047,0,1,0,944.9,533.2a2.827,2.827,0,0,0,1.205,1.157,2.861,2.861,0,0,0,3.922-3.686,20.016,20.016,0,0,0,2.572-2.1,20.063,20.063,0,0,0,21.06-10.624l-10.8-1.816Z" transform="translate(-838.103 -305.884)" fill="#6c63ff"/>
    <g id="Group_2" data-name="Group 2" transform="translate(80.301 187.59)" opacity="0.1">
      <path id="Path_55" data-name="Path 55" d="M958.068,526.357c-3.986-5.261-6.429-11.492-9.242-17.47a73.039,73.039,0,0,0-3.788-7.157l-2.111-2.459c-.354.3-.707.611-1.072.938a20.163,20.163,0,0,0-5.261-.155l-2.32,10.559-.139-10.179a20.047,20.047,0,1,0,10.715,38.573,2.829,2.829,0,0,0,1.205,1.157,2.861,2.861,0,0,0,3.922-3.686,20.018,20.018,0,0,0,2.572-2.1,20.086,20.086,0,0,0,12.022-1.779A28.238,28.238,0,0,1,958.068,526.357Z" transform="translate(-918.381 -499.27)"/>
    </g>
    <path id="Path_56" data-name="Path 56" d="M817.9,472.645a2.861,2.861,0,0,0-2.561-4.152,20.021,20.021,0,0,0-6.268-11.159,20.1,20.1,0,0,0,.589-6.268l-10.527-1.795,10.222-.643a20.331,20.331,0,0,0-.755-2.829,2.922,2.922,0,0,0,.943-1.071,2.866,2.866,0,0,0-3.53-3.986,20.047,20.047,0,0,0-35.782,16.565,2.813,2.813,0,0,0-1.425,1.339,2.861,2.861,0,0,0,3.616,3.948,20.1,20.1,0,0,0,3.8,4.634,20.036,20.036,0,0,0,.932,12.729l14.117-3.664-12.59,6.622a20.047,20.047,0,0,0,36.918-8.711A2.856,2.856,0,0,0,817.9,472.645Z" transform="translate(-768.493 -280.576)" fill="#6c63ff"/>
    <path id="Path_57" data-name="Path 57" d="M824.046,493.489a2.861,2.861,0,0,0-2.561-4.152,20.021,20.021,0,0,0-6.268-11.159c.086-.338.161-.67.225-1.007a7.063,7.063,0,0,0-1.034.916c-1.9,2.084-2.877,4.886-4.757,6.991a13.7,13.7,0,0,1-8.856,4.131,33.716,33.716,0,0,1-9.927-.8,28.635,28.635,0,0,0-8.208-.895,4.586,4.586,0,0,0-.782.1c.161.155.321.311.487.461a20.036,20.036,0,0,0,.932,12.729l14.117-3.67-12.59,6.622a20.048,20.048,0,0,0,36.918-8.711A2.855,2.855,0,0,0,824.046,493.489Z" transform="translate(-774.642 -301.42)" opacity="0.1"/>
  </g>
  <g id="Group_6" data-name="Group 6" transform="translate(0 171.11)" opacity="0.1">
    <path id="Path_58" data-name="Path 58" d="M177.2,546.986c.686-2.084,3.466-3.043,6.209-2.143a6.852,6.852,0,0,1,1.141.493c.177-.048.359-.091.536-.123a6.032,6.032,0,0,1-.171-1.832,6.675,6.675,0,0,1-2.93-5.8,6.657,6.657,0,0,1-2.931-5.791,6.429,6.429,0,0,1-2.218-2.518c-1.318-2.614-.782-5.556,1.227-6.574s4.7.295,6.022,2.909a6.429,6.429,0,0,1,.707,3.284,6.627,6.627,0,0,1,2.931,5.791,6.643,6.643,0,0,1,2.93,5.8,6.627,6.627,0,0,1,2.93,5.791,6.429,6.429,0,0,1,2.223,2.518,6.786,6.786,0,0,1,.536,1.554,5.712,5.712,0,0,1,1.195-1.28,6.737,6.737,0,0,1,.279-1.216c.905-2.743,3.322-4.414,5.406-3.75s3.038,3.466,2.143,6.209a6.253,6.253,0,0,1-2.041,2.995,6.789,6.789,0,0,1-.279,1.211,5.946,5.946,0,0,1-2.738,3.439,6.879,6.879,0,0,1,.225,1.072,6.733,6.733,0,0,1,1.355,1.837,6.6,6.6,0,0,1,.675,2.186,6.722,6.722,0,0,1,1.361,1.838,6.836,6.836,0,0,0,2.036,4.029c1.323,2.614.777,5.561-1.222,6.568s-4.7-.289-6.022-2.909a6.685,6.685,0,0,1-.675-2.186A6.8,6.8,0,0,1,196,566.364a6.8,6.8,0,0,1-2.036-4.023,6.75,6.75,0,0,1-1.361-1.838,6.82,6.82,0,0,1-.675-2.186,6.733,6.733,0,0,1-1.355-1.838,6.6,6.6,0,0,1-.675-2.186,6.227,6.227,0,0,1-.916-1.071,6.375,6.375,0,0,1-3.311-.2,7.134,7.134,0,0,1-1.146-.5,6.221,6.221,0,0,1-3.616-.129C178.2,551.486,176.519,549.07,177.2,546.986Z" transform="translate(-129.256 -444.204)" fill="#3f3d56"/>
    <g id="Group_4" data-name="Group 4" transform="translate(47.816 85.435)" opacity="0.1">
      <path id="Path_59" data-name="Path 59" d="M187.17,553a5.75,5.75,0,0,0,.932.745,6.059,6.059,0,0,0,.3,2.271,6.394,6.394,0,0,1-.568-.927A6.675,6.675,0,0,1,187.17,553Z" transform="translate(-182.205 -543.866)"/>
      <path id="Path_60" data-name="Path 60" d="M181.7,542.2a6.009,6.009,0,0,0,.932.739,6.1,6.1,0,0,0,.3,2.277A6.8,6.8,0,0,1,181.7,542.2Z" transform="translate(-179.665 -538.852)"/>
      <path id="Path_61" data-name="Path 61" d="M194.093,537.139a5.951,5.951,0,0,0-.043-1.189,6.786,6.786,0,0,1,1.291,1.773,6.974,6.974,0,0,1,.407,1.007,6.121,6.121,0,0,0-1.655-1.591Z" transform="translate(-185.399 -535.95)"/>
      <path id="Path_62" data-name="Path 62" d="M227.939,601.912a6.25,6.25,0,0,0-.793-.911,6.638,6.638,0,0,0-.236-1.071,7.087,7.087,0,0,1,.616,1,6.966,6.966,0,0,1,.413.986Z" transform="translate(-200.655 -565.653)"/>
      <path id="Path_63" data-name="Path 63" d="M224.118,594.4a2.285,2.285,0,0,1-1.018-1.982h0a6.789,6.789,0,0,1,1.007,1.972Z" transform="translate(-198.886 -562.167)"/>
      <path id="Path_64" data-name="Path 64" d="M185.8,563.775a5.42,5.42,0,0,0,.927.734,5.839,5.839,0,0,0,.171,1.832,5.365,5.365,0,0,0-.536.123,7.1,7.1,0,0,0-1.146-.493c-2.743-.9-5.523.059-6.2,2.143a3.118,3.118,0,0,0-.091,1.607,3.713,3.713,0,0,1-.889-3.541c.686-2.084,3.466-3.043,6.209-2.143a6.84,6.84,0,0,1,1.141.493c.177-.048.359-.091.536-.123a5.517,5.517,0,0,1-.118-.632Z" transform="translate(-177.902 -548.833)"/>
      <path id="Path_65" data-name="Path 65" d="M230.71,607.4a6.843,6.843,0,0,1,.616,1,6.97,6.97,0,0,1,.413,1.007,6.3,6.3,0,0,0-.793-.916A6.645,6.645,0,0,0,230.71,607.4Z" transform="translate(-202.419 -569.121)"/>
      <path id="Path_66" data-name="Path 66" d="M199.563,547.969a5.938,5.938,0,0,0-.043-1.189,6.691,6.691,0,0,1,1.291,1.773,6.9,6.9,0,0,1,.407,1A6.1,6.1,0,0,0,199.563,547.969Z" transform="translate(-187.939 -540.978)"/>
      <path id="Path_67" data-name="Path 67" d="M206.865,592.371a6.4,6.4,0,0,0,.263,1.179,6.765,6.765,0,0,1-1.007-2.02,6.27,6.27,0,0,0,.745.841Z" transform="translate(-191.003 -561.753)"/>
      <path id="Path_68" data-name="Path 68" d="M214.459,607.41a6.789,6.789,0,0,0,.268,1.179,6.4,6.4,0,0,1-.568-.927,6.9,6.9,0,0,1-.439-1.071A6.966,6.966,0,0,0,214.459,607.41Z" transform="translate(-194.531 -568.745)"/>
      <path id="Path_69" data-name="Path 69" d="M210.665,599.9a6.4,6.4,0,0,0,.263,1.179,6.889,6.889,0,0,1-.568-.927,6.75,6.75,0,0,1-.439-1.071A6.29,6.29,0,0,0,210.665,599.9Z" transform="translate(-192.767 -565.259)"/>
      <path id="Path_70" data-name="Path 70" d="M203.088,584.874a6.354,6.354,0,0,0,.263,1.184,6.664,6.664,0,0,1-.536-.927,6.553,6.553,0,0,1-.445-1.071A5.97,5.97,0,0,0,203.088,584.874Z" transform="translate(-189.262 -558.286)"/>
      <path id="Path_71" data-name="Path 71" d="M221.871,564.783c-2.084-.686-4.5.986-5.4,3.75a6.74,6.74,0,0,0-.279,1.216,5.694,5.694,0,0,0-1.2,1.275,6.874,6.874,0,0,0-.563-1.554c-.091-.182-.193-.359-.3-.536a5.692,5.692,0,0,1,1.071-1.125,6.739,6.739,0,0,1,.279-1.216c.905-2.743,3.322-4.414,5.406-3.75a3.712,3.712,0,0,1,2.325,2.818A3.176,3.176,0,0,0,221.871,564.783Z" transform="translate(-194.721 -548.368)"/>
      <path id="Path_72" data-name="Path 72" d="M210.5,569.589a5.948,5.948,0,0,0-.043-1.189,6.689,6.689,0,0,1,1.291,1.773,6.973,6.973,0,0,1,.407,1.007,6.044,6.044,0,0,0-1.655-1.591Z" transform="translate(-193.018 -551.015)"/>
      <path id="Path_73" data-name="Path 73" d="M205.033,558.769a5.957,5.957,0,0,0-.043-1.189,6.874,6.874,0,0,1,1.291,1.773,6.969,6.969,0,0,1,.407,1.007,6.118,6.118,0,0,0-1.655-1.591Z" transform="translate(-190.478 -545.992)"/>
      <path id="Path_74" data-name="Path 74" d="M218.259,614.919a6.372,6.372,0,0,0,.268,1.184,6.761,6.761,0,0,1-.568-.932,6.9,6.9,0,0,1-.439-1.071A6.953,6.953,0,0,0,218.259,614.919Z" transform="translate(-196.295 -572.232)"/>
    </g>
    <path id="Path_75" data-name="Path 75" d="M168.122,510.168a6.386,6.386,0,0,1-2.218-2.513c-1.323-2.62-.777-5.561,1.221-6.573s4.7.289,6.022,2.909a6.391,6.391,0,0,1,.707,3.279,6.643,6.643,0,0,1,2.93,5.8,6.429,6.429,0,0,1,2.223,2.513,7.091,7.091,0,0,1,.407,1,5.663,5.663,0,0,0-2.909-2.143,3.3,3.3,0,0,1-4.195,2.143,5.636,5.636,0,0,0,0,3.616,7.065,7.065,0,0,1-.536-.916,6.429,6.429,0,0,1-.713-3.279,6.659,6.659,0,0,1-2.93-5.8Z" transform="translate(-124.181 -434.168)" fill="#3f3d56"/>
    <path id="Path_76" data-name="Path 76" d="M100.842,416.88a19.72,19.72,0,0,1-2.352-1.3l8.722-6.375L96.958,414.48A19.469,19.469,0,0,1,89.677,400.9l17.433.182L89.64,398.161a19.442,19.442,0,1,1,38.472,4.929,19.676,19.676,0,0,1,3.579,2.143L122.583,417.9l10.934-11.079a19.458,19.458,0,0,1,5.443,17.706,19.442,19.442,0,1,1-27.269,13.79,19.437,19.437,0,0,1-10.849-21.43Z" transform="translate(-89.11 -378.028)" fill="#6c63ff"/>
    <path id="Path_77" data-name="Path 77" d="M156.021,439.692a19.351,19.351,0,0,1,1.714,12.606,19.442,19.442,0,1,1-27.269,13.79C126.647,464.315,155.041,437.747,156.021,439.692Z" transform="translate(-107.885 -405.779)" opacity="0.1"/>
    <circle id="Ellipse_17" data-name="Ellipse 17" cx="2.888" cy="2.888" r="2.888" transform="translate(23.348)" fill="#6c63ff"/>
    <circle id="Ellipse_18" data-name="Ellipse 18" cx="2.888" cy="2.888" r="2.888" transform="translate(6.493 1.854)" fill="#6c63ff"/>
    <circle id="Ellipse_19" data-name="Ellipse 19" cx="2.888" cy="2.888" r="2.888" transform="translate(0 27.778)" fill="#6c63ff"/>
    <circle id="Ellipse_20" data-name="Ellipse 20" cx="2.888" cy="2.888" r="2.888" transform="translate(8.77 40.727)" fill="#6c63ff"/>
    <circle id="Ellipse_21" data-name="Ellipse 21" cx="2.888" cy="2.888" r="2.888" transform="translate(20.749 67.616)" fill="#6c63ff"/>
    <circle id="Ellipse_22" data-name="Ellipse 22" cx="2.888" cy="2.888" r="2.888" transform="translate(20.749 67.616)" opacity="0.1"/>
    <circle id="Ellipse_23" data-name="Ellipse 23" cx="2.888" cy="2.888" r="2.888" transform="translate(47.392 37.159)" fill="#6c63ff"/>
    <circle id="Ellipse_24" data-name="Ellipse 24" cx="2.888" cy="2.888" r="2.888" transform="translate(47.392 37.159)" opacity="0.1"/>
    <path id="Path_78" data-name="Path 78" d="M183.18,534.4c1.918-.97,2.5-3.713,1.377-6.247.059.107.118.209.171.316,1.323,2.62.777,5.561-1.227,6.574s-4.693-.289-6.016-2.909c-.054-.107-.107-.214-.155-.327C178.707,534.209,181.262,535.366,183.18,534.4Z" transform="translate(-129.82 -446.894)" opacity="0.1"/>
    <path id="Path_79" data-name="Path 79" d="M188.495,544.917c1.918-.97,2.5-3.718,1.382-6.247.059.1.118.209.171.316,1.323,2.62.777,5.561-1.227,6.574s-4.693-.289-6.016-2.909c-.059-.107-.107-.22-.155-.327C184.027,544.74,186.588,545.886,188.495,544.917Z" transform="translate(-132.29 -451.778)" opacity="0.1"/>
    <path id="Path_80" data-name="Path 80" d="M193.815,555.427c1.918-.97,2.5-3.713,1.377-6.247.064.107.118.209.177.322,1.323,2.614.771,5.561-1.227,6.568s-4.693-.289-6.016-2.909c-.059-.107-.107-.214-.155-.327C189.342,555.239,191.9,556.4,193.815,555.427Z" transform="translate(-134.76 -456.657)" opacity="0.1"/>
    <path id="Path_81" data-name="Path 81" d="M199.135,565.947c1.918-.97,2.5-3.713,1.377-6.247.059.1.118.209.171.316,1.329,2.62.777,5.561-1.221,6.574s-4.7-.289-6.022-2.909c-.054-.107-.1-.22-.15-.327C194.661,565.754,197.217,566.916,199.135,565.947Z" transform="translate(-137.23 -461.541)" opacity="0.1"/>
    <path id="Path_82" data-name="Path 82" d="M204.45,576.461c1.918-.97,2.5-3.713,1.377-6.241.059.1.118.209.171.316,1.323,2.62.777,5.561-1.221,6.574s-4.7-.295-6.022-2.909c-.054-.113-.1-.22-.155-.327C199.977,576.274,202.532,577.431,204.45,576.461Z" transform="translate(-139.695 -466.425)" opacity="0.1"/>
    <path id="Path_83" data-name="Path 83" d="M209.77,586.977c1.918-.97,2.5-3.713,1.377-6.247.059.107.118.209.171.316,1.323,2.62.777,5.561-1.221,6.574s-4.7-.289-6.022-2.909c-.054-.107-.107-.214-.155-.327C205.3,586.768,207.852,587.946,209.77,586.977Z" transform="translate(-142.165 -471.305)" opacity="0.1"/>
    <path id="Path_84" data-name="Path 84" d="M215.09,597.5c1.913-.97,2.5-3.718,1.377-6.247.059.1.118.209.171.316,1.323,2.62.777,5.561-1.227,6.574s-4.693-.295-6.016-2.909c-.054-.113-.107-.22-.155-.327C210.617,597.3,213.172,598.466,215.09,597.5Z" transform="translate(-144.635 -476.189)" opacity="0.1"/>
    <path id="Path_85" data-name="Path 85" d="M220.4,608.007c1.918-.97,2.5-3.713,1.377-6.247.064.107.118.209.177.321,1.323,2.614.771,5.561-1.227,6.568s-4.693-.289-6.016-2.909c-.059-.107-.107-.214-.155-.327C215.937,607.819,218.487,608.976,220.4,608.007Z" transform="translate(-147.105 -481.068)" opacity="0.1"/>
    <path id="Path_86" data-name="Path 86" d="M223.93,614.917c1.918-.97,2.5-3.713,1.377-6.247.059.107.118.209.171.321,1.323,2.615.777,5.561-1.222,6.568s-4.7-.289-6.022-2.909c-.054-.107-.107-.214-.155-.327C219.441,614.74,222,615.886,223.93,614.917Z" transform="translate(-148.739 -484.276)" opacity="0.1"/>
    <path id="Path_87" data-name="Path 87" d="M131.151,561.023a9.949,9.949,0,0,1-.536-2.641,1.441,1.441,0,1,1,.22-2.866,10.082,10.082,0,0,1,5.3-6.831,1.444,1.444,0,0,1,2.577-1.3,1.309,1.309,0,0,1,.129.386,10.136,10.136,0,0,1,8.872,2.679,10,10,0,0,1,2.679-.075l1.168,5.315.027-5.127a10.1,10.1,0,1,1-5.4,19.442,1.478,1.478,0,0,1-.605.584,1.446,1.446,0,0,1-1.982-1.859,10.091,10.091,0,0,1-1.291-1.072A10.109,10.109,0,0,1,131.7,562.3l5.438-.916Z" transform="translate(-107.466 -455.455)" fill="#6c63ff"/>
    <g id="Group_5" data-name="Group 5" transform="translate(28.78 94.505)" opacity="0.1">
      <path id="Path_88" data-name="Path 88" d="M145.675,566.525c2.009-2.679,3.241-5.786,4.656-8.8a35.752,35.752,0,0,1,1.907-3.611l1.071-1.238c.182.155.359.311.536.471a10,10,0,0,1,2.679-.075l1.168,5.315.016-5.111a10.1,10.1,0,1,1-5.4,19.442,1.479,1.479,0,0,1-.605.584,1.447,1.447,0,0,1-1.982-1.859,10.087,10.087,0,0,1-1.291-1.071,10.18,10.18,0,0,1-6.059-.895,14.247,14.247,0,0,0,3.306-3.156Z" transform="translate(-142.37 -552.88)"/>
    </g>
    <path id="Path_89" data-name="Path 89" d="M214.775,539.476a1.436,1.436,0,0,1,.638-1.934,1.416,1.416,0,0,1,.654-.155,10.1,10.1,0,0,1,3.156-5.625,10.024,10.024,0,0,1-.295-3.155l5.3-.889-5.148-.327a10,10,0,0,1,.386-1.425,1.413,1.413,0,0,1-.477-.536,1.446,1.446,0,0,1,1.779-2.009,9.98,9.98,0,0,1,3.681-3.177,10.093,10.093,0,0,1,14.342,11.518,1.441,1.441,0,0,1-1.1,2.663,10.039,10.039,0,0,1-1.913,2.325,10.125,10.125,0,0,1-.466,6.429l-7.088-1.864,6.338,3.338a10.1,10.1,0,0,1-17.588-.825,10.238,10.238,0,0,1-1.039-3.563,1.431,1.431,0,0,1-1.152-.788Z" transform="translate(-147.132 -442.716)" fill="#6c63ff"/>
    <path id="Path_90" data-name="Path 90" d="M214.775,549.968a1.436,1.436,0,0,1,.638-1.934,1.413,1.413,0,0,1,.654-.155,10.1,10.1,0,0,1,3.156-5.625c-.043-.166-.08-.337-.113-.5a3.9,3.9,0,0,1,.536.461c.959,1.072,1.452,2.459,2.395,3.52a6.917,6.917,0,0,0,4.463,2.084,16.894,16.894,0,0,0,5-.4,14.661,14.661,0,0,1,4.136-.455l.4.054-.246.23a10.126,10.126,0,0,1-.466,6.429l-7.1-1.864,6.338,3.338a10.1,10.1,0,0,1-17.588-.825,10.238,10.238,0,0,1-1.039-3.563,1.431,1.431,0,0,1-1.152-.788Z" transform="translate(-147.132 -453.208)" opacity="0.1"/>
  </g>
  <path id="Path_91" data-name="Path 91" d="M406.838,96.488a10.838,10.838,0,0,0-6.29.686,9.279,9.279,0,0,1-7.554,0,10.586,10.586,0,0,0-8.883.177,5.507,5.507,0,0,1-2.555.638c-3.6,0-6.595-3.627-7.216-8.411a7,7,0,0,0,1.8-1.939c2.111-3.4,5.357-5.588,9.049-5.588s6.906,2.143,9.017,5.523a6.965,6.965,0,0,0,5.979,3.289h.1C403.12,90.847,405.6,93.145,406.838,96.488Z" transform="translate(-221.284 -68.678)" fill="#6c63ff" opacity="0.1"/>
  <path id="Path_92" data-name="Path 92" d="M417.759,69.9l-5.818,3.691,3.531-6.429a5.754,5.754,0,0,0-3.52-1.254h-.091a6.9,6.9,0,0,1-1.205-.091l-1.977,1.254.846-1.538a7.067,7.067,0,0,1-3.45-2.6l-3.541,2.213,2.229-4.056a10.327,10.327,0,0,0-7.908-4c-3.67,0-6.965,2.186-9.054,5.588a6.761,6.761,0,0,1-5.984,3.214h-.177c-4.05,0-7.34,4.591-7.34,10.265s3.289,10.259,7.34,10.259a5.507,5.507,0,0,0,2.555-.638,10.565,10.565,0,0,1,8.883-.171,9.306,9.306,0,0,0,7.554,0,10.581,10.581,0,0,1,8.8.171,5.546,5.546,0,0,0,2.529.621c4.056,0,7.34-4.591,7.34-10.259a13.05,13.05,0,0,0-1.543-6.241Z" transform="translate(-221.266 -57.09)" fill="#6c63ff" opacity="0.1"/>
  <path id="Path_93" data-name="Path 93" d="M168.767,229.638a15.537,15.537,0,0,0-8.984.975,13.238,13.238,0,0,1-10.79-.027,15.119,15.119,0,0,0-12.686.252,7.9,7.9,0,0,1-3.654.911c-5.143,0-9.424-5.181-10.313-12.017a9.863,9.863,0,0,0,2.572-2.77c3.016-4.859,7.688-7.983,12.933-7.983s9.858,3.086,12.858,7.891a9.922,9.922,0,0,0,8.572,4.7h.134C163.469,221.564,167.015,224.849,168.767,229.638Z" transform="translate(-104.291 -127.606)" fill="#6c63ff" opacity="0.1"/>
  <path id="Path_94" data-name="Path 94" d="M184.365,191.636l-8.315,5.272,5.047-9.177a8.218,8.218,0,0,0-5.031-1.795h-.134a9.73,9.73,0,0,1-1.725-.129l-2.807,1.816,1.211-2.2a10.019,10.019,0,0,1-4.929-3.75l-5.047,3.214,3.177-5.84a14.764,14.764,0,0,0-11.3-5.711c-5.245,0-9.917,3.118-12.933,7.977a9.67,9.67,0,0,1-8.572,4.613h-.284c-5.791,0-10.484,6.563-10.484,14.663s4.693,14.663,10.484,14.663a7.828,7.828,0,0,0,3.654-.916,15.118,15.118,0,0,1,12.686-.247,13.238,13.238,0,0,0,10.79.027,15.135,15.135,0,0,1,12.579.241,7.849,7.849,0,0,0,3.611.895c5.791,0,10.484-6.568,10.484-14.663A18.623,18.623,0,0,0,184.365,191.636Z" transform="translate(-104.244 -111.06)" fill="#6c63ff" opacity="0.1"/>
  <path id="Path_95" data-name="Path 95" d="M836.62,135.465a10.843,10.843,0,0,1,6.289.686,9.263,9.263,0,0,0,7.549,0,10.586,10.586,0,0,1,8.883.177,5.524,5.524,0,0,0,2.555.638c3.6,0,6.6-3.627,7.222-8.411a6.929,6.929,0,0,1-1.8-1.939c-2.1-3.413-5.384-5.615-9.065-5.615s-6.9,2.143-9.011,5.523a6.965,6.965,0,0,1-5.99,3.306h-.091C840.311,129.824,837.825,132.122,836.62,135.465Z" transform="translate(-435.902 -86.761)" fill="#6c63ff" opacity="0.1"/>
  <path id="Path_96" data-name="Path 96" d="M814.83,108.923l5.818,3.681-3.536-6.429a5.765,5.765,0,0,1,3.52-1.254h.1a6.964,6.964,0,0,0,1.205-.091l1.971,1.254-.846-1.538a7.078,7.078,0,0,0,3.482-2.588l3.531,2.239-2.234-4.056a10.3,10.3,0,0,1,7.913-4c3.67,0,6.965,2.186,9.054,5.588a6.756,6.756,0,0,0,5.984,3.214h.193c4.055,0,7.34,4.591,7.34,10.265s-3.284,10.259-7.34,10.259a5.54,5.54,0,0,1-2.556-.638,10.565,10.565,0,0,0-8.883-.171,9.3,9.3,0,0,1-7.549,0,10.592,10.592,0,0,0-8.808.171,5.529,5.529,0,0,1-2.529.621c-4.05,0-7.34-4.591-7.34-10.259a13.052,13.052,0,0,1,1.511-6.268Z" transform="translate(-425.084 -75.219)" fill="#6c63ff" opacity="0.1"/>
  <ellipse id="Ellipse_25" data-name="Ellipse 25" cx="61.61" cy="10.715" rx="61.61" ry="10.715" transform="translate(268.208 394.777)" fill="#6c63ff" opacity="0.1"/>
  <path id="Path_97" data-name="Path 97" d="M472.714,623.695l-95.464-1.227.284-2.448,4.613-40.39h83.838l6.166,40.39.471,3.064Z" transform="translate(-175.142 -269.098)" fill="#d0d2d5"/>
  <path id="Path_98" data-name="Path 98" d="M472.623,658.084H424.985l-47.735-.616.284-2.448h94.617Z" transform="translate(-175.142 -304.099)" opacity="0.1"/>
  <rect id="Rectangle_3" data-name="Rectangle 3" width="126.676" height="3.059" transform="translate(186.197 351.537)" fill="#d0d2d5"/>
  <path id="Path_99" data-name="Path 99" d="M577.938,176.993A7.966,7.966,0,0,0,570.009,169H216.249a7.966,7.966,0,0,0-7.929,8v214.43H577.938Z" transform="translate(-144.208 -109.045)" fill="#3f3d56"/>
  <path id="Path_100" data-name="Path 100" d="M208.32,580.19v25.116a7.929,7.929,0,0,0,7.929,7.929H570.009a7.929,7.929,0,0,0,7.929-7.929V580.19Z" transform="translate(-144.208 -299.944)" fill="#d0d2d5"/>
  <rect id="Rectangle_4" data-name="Rectangle 4" width="340.855" height="192.765" transform="translate(79.413 73.402)" fill="#fff"/>
  <rect id="Rectangle_28" data-name="Rectangle 28" width="337.195" height="176.526" transform="translate(81.089 87.794)" fill="#3f3d56"/>
  <path id="Path_227" data-name="Path 227" d="M470.09,262H413.46a.687.687,0,1,1,0-1.375h56.63a.687.687,0,0,1,0,1.375Z" transform="translate(-229.809 -152.021)" fill="#f2f2f2"/>
  <path id="Path_228" data-name="Path 228" d="M599.339,286.767H510.271a.687.687,0,0,1,0-1.375h89.068a.687.687,0,1,1,0,1.375Z" transform="translate(-297.068 -169.227)" fill="#f2f2f2"/>
  <path id="Path_229" data-name="Path 229" d="M470.99,311.533H414.36a.687.687,0,1,1,0-1.375h56.63a.687.687,0,0,1,0,1.375Z" transform="translate(-230.434 -186.433)" fill="#f2f2f2"/>
  <path id="Path_230" data-name="Path 230" d="M673.168,311.983h-56.63a.687.687,0,0,1,0-1.375h56.63a.687.687,0,1,1,0,1.375Z" transform="translate(-370.896 -186.746)" fill="#f2f2f2"/>
  <path id="Path_231" data-name="Path 231" d="M471.44,336.3H414.81a.687.687,0,0,1,0-1.375h56.63a.687.687,0,0,1,0,1.375Z" transform="translate(-230.747 -203.639)" fill="#f2f2f2"/>
  <path id="Path_232" data-name="Path 232" d="M471.891,361.064h-56.63a.687.687,0,1,1,0-1.375h56.63a.687.687,0,1,1,0,1.375Z" transform="translate(-231.06 -220.845)" fill="#f2f2f2"/>
  <path id="Path_233" data-name="Path 233" d="M648.067,262.451H631.848a.687.687,0,1,1,0-1.375h16.219a.687.687,0,0,1,0,1.375Z" transform="translate(-381.533 -152.334)" fill="#f2f2f2"/>
  <path id="Path_234" data-name="Path 234" d="M648.067,336.3H631.848a.687.687,0,0,1,0-1.375h16.219a.687.687,0,0,1,0,1.375Z" transform="translate(-381.533 -203.639)" fill="#f2f2f2"/>
  <path id="Path_235" data-name="Path 235" d="M648.067,360.614H631.848a.687.687,0,0,1,0-1.375h16.219a.687.687,0,0,1,0,1.375Z" transform="translate(-381.533 -220.532)" fill="#f2f2f2"/>
  <path id="Path_236" data-name="Path 236" d="M737.224,360.614H721a.687.687,0,0,1,0-1.375h16.219a.687.687,0,1,1,0,1.375Z" transform="translate(-443.474 -220.532)" fill="#f2f2f2"/>
  <path id="Path_237" data-name="Path 237" d="M429.228,286.767H413.009a.687.687,0,0,1,0-1.375h16.219a.687.687,0,0,1,0,1.375Z" transform="translate(-229.496 -169.227)" fill="#f2f2f2"/>
  <path id="Path_238" data-name="Path 238" d="M470.315,626.733h-56.63a.687.687,0,1,1,0-1.375h56.63a.687.687,0,1,1,0,1.374Z" transform="translate(-229.965 -405.417)" fill="#f2f2f2"/>
  <path id="Path_239" data-name="Path 239" d="M469.414,676.264h-56.63a.687.687,0,0,1,0-1.375h56.63a.687.687,0,0,1,0,1.375Z" transform="translate(-229.339 -439.828)" fill="#f2f2f2"/>
  <path id="Path_240" data-name="Path 240" d="M469.864,701.03h-56.63a.687.687,0,1,1,0-1.375h56.63a.687.687,0,1,1,0,1.374Z" transform="translate(-229.652 -457.035)" fill="#f2f2f2"/>
  <path id="Path_241" data-name="Path 241" d="M641.088,676.714H624.869a.687.687,0,0,1,0-1.375h16.219a.687.687,0,0,1,0,1.375Z" transform="translate(-376.684 -440.141)" fill="#f2f2f2"/>
  <path id="Path_242" data-name="Path 242" d="M641.088,701.03H624.869a.687.687,0,1,1,0-1.375h16.219a.687.687,0,1,1,0,1.374Z" transform="translate(-376.684 -457.035)" fill="#f2f2f2"/>
  <path id="Path_243" data-name="Path 243" d="M730.244,676.714H714.025a.687.687,0,0,1,0-1.375h16.219a.687.687,0,0,1,0,1.375Z" transform="translate(-438.625 -440.141)" fill="#f2f2f2"/>
  <path id="Path_244" data-name="Path 244" d="M599.564,651.5H510.5a.687.687,0,1,1,0-1.375h89.068a.687.687,0,1,1,0,1.375Z" transform="translate(-297.224 -422.622)" fill="#f2f2f2"/>
  <path id="Path_245" data-name="Path 245" d="M429.453,651.5H413.234a.687.687,0,1,1,0-1.375h16.219a.687.687,0,1,1,0,1.375Z" transform="translate(-229.652 -422.622)" fill="#f2f2f2"/>
  <path id="Path_246" data-name="Path 246" d="M599.564,726.246H510.5a.687.687,0,0,1,0-1.375h89.068a.687.687,0,1,1,0,1.375Z" transform="translate(-297.224 -474.553)" fill="#f2f2f2"/>
  <path id="Path_247" data-name="Path 247" d="M429.453,726.246H413.234a.687.687,0,1,1,0-1.375h16.219a.687.687,0,1,1,0,1.375Z" transform="translate(-229.652 -474.553)" fill="#f2f2f2"/>
  <path id="Path_248" data-name="Path 248" d="M469.006,401.13l-21.992,21.717,21.992,21.717,4.948-4.948-16.631-16.632,16.769-16.769Z" transform="translate(-242.333 -242.767)" fill="#6c63ff"/>
  <path id="Path_249" data-name="Path 249" d="M613.753,401.13l21.992,21.717-21.992,21.717-4.948-4.948,16.632-16.632-16.769-16.769Z" transform="translate(-354.641 -242.767)" fill="#6c63ff"/>
  <path id="Path_101" data-name="Path 101" d="M549.561,609.755a8.251,8.251,0,0,0,6.5-3.156h0a8.6,8.6,0,0,0,.643-.943l-4.538-.766,4.9.032a8.261,8.261,0,0,0,.155-6.541l-6.574,3.407,6.065-4.458a8.261,8.261,0,1,0-13.645,9.247h0A8.25,8.25,0,0,0,549.561,609.755Z" transform="translate(-298.802 -305.995)" fill="#6c63ff"/>
  <path id="Path_102" data-name="Path 102" d="M483.48,584.77l38.086,38.252-5.845-38.252Z" transform="translate(-224.46 -271.485)" opacity="0.1"/>
  <rect id="Rectangle_5" data-name="Rectangle 5" width="341.224" height="11.261" transform="translate(79.145 73.423)" fill="#444053" opacity="0.1"/>
  <rect id="Rectangle_6" data-name="Rectangle 6" width="102.809" height="6.852" rx="0.58" transform="translate(197.619 75.384)" fill="#6c63ff" opacity="0.3"/>
  <path id="Path_103" data-name="Path 103" d="M640.331,202.553h-.252l-.091-.08a2.084,2.084,0,0,0,.482-1.334,2.025,2.025,0,1,0-2.02,2.041,2.089,2.089,0,0,0,1.334-.487l.091.08v.252l1.57,1.57.466-.471Zm-1.88,0a1.4,1.4,0,1,1,1-.413A1.414,1.414,0,0,1,638.451,202.553Z" transform="translate(-342.957 -123.033)" fill="#3f3d56"/>
  <circle id="Ellipse_26" data-name="Ellipse 26" cx="2.063" cy="2.063" r="2.063" transform="translate(83.217 76.991)" fill="#fa5959" opacity="0.8"/>
  <circle id="Ellipse_27" data-name="Ellipse 27" cx="2.063" cy="2.063" r="2.063" transform="translate(88.89 76.991)" fill="#fed253" opacity="0.8"/>
  <circle id="Ellipse_28" data-name="Ellipse 28" cx="2.063" cy="2.063" r="2.063" transform="translate(94.569 76.991)" fill="#8ccf4d" opacity="0.8"/>
  <path id="Path_106" data-name="Path 106" d="M691.017,659.754a5.12,5.12,0,0,0-1.162-1.291c-2.341-2.213-3.429-5.459-4.007-8.642s-.745-6.429-1.672-9.542a31.455,31.455,0,0,0-1.886-4.645c-.536-1.146-1.211-3.391-2.191-4.195a1.446,1.446,0,0,0-.675-.327,7.954,7.954,0,0,0-1.939-2.582c-1.532-1.388-3.4-2.491-4.425-4.286a9.633,9.633,0,0,0-1.034-1.762c-.691-.761-1.784-1.072-2.421-1.875-.83-1.039-.643-2.529-.536-3.852s0-2.909-1.146-3.606c-.686-.423-1.57-.38-2.282-.755a3.3,3.3,0,0,1-1.473-3.091c.021-1.205.4-2.379.493-3.584.3-3.836-2.229-7.65-1.254-11.368a23.115,23.115,0,0,1,1.843-3.943,8.245,8.245,0,0,0,.536-1.361A19.141,19.141,0,0,0,671,590.306c-2.952-6.622-2.2-14.315-3.579-21.43l.177-.241a11.164,11.164,0,0,0,2.261-6.354c0-2.647-1.237-5.122-1.795-7.715-.477-2.2-.455-4.505-1.072-6.67a20.162,20.162,0,0,0-1.693-3.868q-1-1.859-2.106-3.659-1.029-3.407-2.062-6.815a32.938,32.938,0,0,0-3.831-9.183c-.686-1.007-.895-3.054-1.95-3.664a4.72,4.72,0,0,0-2.786-.487,5.209,5.209,0,0,1-2.984-3.691,3.576,3.576,0,0,1,.107-1.072h.182c2.357-.214,3.552-2.293,4.779-4.115,1.982-2.947,1.227-6.932,0-10.286a6.965,6.965,0,0,0-1.607-2.834c-1.72-1.607-4.441-1.254-6.659-2.03-.745-.257-1.441-.648-2.2-.83a6.589,6.589,0,0,0-4.366.82,43.411,43.411,0,0,1-4.023,2.095c-1.414.536-3.161.959-3.509,2.411a2.678,2.678,0,0,0,.118,1.463,5.454,5.454,0,0,0,1.655,2.389,9.542,9.542,0,0,0,5.823,13.3q.611.98,1.136,2a6.59,6.59,0,0,1,.932,3.9,12.034,12.034,0,0,0-1.072,1.313,25.252,25.252,0,0,0-3.214,7.163A75.9,75.9,0,0,0,635.075,542a73.555,73.555,0,0,0-3.852,8.358,18.865,18.865,0,0,1-5.025-.675l-4.522-1.023a10.22,10.22,0,0,1-4.447-1.784c-.654-.536-1.163-1.248-1.827-1.779s-2-1.152-2.727-.713a2.141,2.141,0,0,0-.37.284c-.664-1.345-1.3-2.679-2.068-3.981-1.109-1.822-2.759-3.488-4.848-3.836a4.936,4.936,0,0,0-3.638.846c-1.221.868-1.988,2.679-1.071,3.9a7.121,7.121,0,0,0,.745.761,15.655,15.655,0,0,1,1.656,2.3,11.738,11.738,0,0,0,7.227,4.693l-.187.536c-.38,1.114-1.189,2.459-.986,3.616l20.112,6.884a12.39,12.39,0,0,0,4.05.895,6.534,6.534,0,0,0,1.607-.214v1.072c.054,7.066-1.072,14.084-1.281,21.146a5.484,5.484,0,0,0,.814,3.686,4.126,4.126,0,0,0,3.938,1.071,9.073,9.073,0,0,0,1-.225,37.144,37.144,0,0,1,1.029,5.416l1.329,9.568a14.536,14.536,0,0,1,.209,2.968c-.155,2.245-1.339,4.254-2.2,6.327s-1.366,4.554-.241,6.493c.354.6.841,1.109,1.157,1.73a7.041,7.041,0,0,1,.536,3.043q.123,4.329.236,8.668a.98.98,0,0,0-.675.134c-1.114.868-.991,5-1.071,6.279-.086,2.143,0,4.329-.118,6.493a38.682,38.682,0,0,1-1.4,8.62,5.513,5.513,0,0,1-1.227,2.47,5.217,5.217,0,0,1-2.18,1.13,24.906,24.906,0,0,1-8.256,1.125,8.126,8.126,0,0,0-3.359.284,2.313,2.313,0,0,0-1.516,2.679,3.378,3.378,0,0,0,2.213,1.666,35.107,35.107,0,0,1,5.893,2.711,15.928,15.928,0,0,0,2.277,1.291,11.753,11.753,0,0,0,2.347.579l9.5,1.639c1.945.332,4.286.536,5.523-1.071a4.869,4.869,0,0,0,.734-3.15c-.054-2.143-.482-4.323-.2-6.466a19.91,19.91,0,0,1,1-3.713q1.42-4.216,2.85-8.427a44.3,44.3,0,0,0,2.288-8.62c.134-1.071.123-2.293-.7-2.963a1.9,1.9,0,0,0-.707-.364c-.032-2.582-.37-5.17-.225-7.752.038-.643.1-1.286.155-1.934a9.425,9.425,0,0,1,1.323,1.564c.916,1.436,1.254,3.332,2.652,4.286,1.189.814,2.952.771,3.788,1.95a5.5,5.5,0,0,1,.6,1.452,10.348,10.348,0,0,0,2.143,3.4,17.14,17.14,0,0,0,1.323,3.4q1.184,2.5,2.357,4.988a58.189,58.189,0,0,0,2.679,5.234,14.758,14.758,0,0,1,1.795,3.461c.755,2.647-.477,5.55-2.427,7.5a20.861,20.861,0,0,1-7.056,4.114,1.989,1.989,0,0,0-.718.429,1.387,1.387,0,0,0-.327.932,3.025,3.025,0,0,0,2.186,2.679,8.175,8.175,0,0,0,3.659.134,54.342,54.342,0,0,0,19.726-5.829,6.963,6.963,0,0,0,2.352-1.816,2.748,2.748,0,0,0,.391-2.791Z" transform="translate(-326.177 -260.509)" fill="url(#linear-gradient)"/>
  <path id="Path_107" data-name="Path 107" d="M710.508,573.409q1.714,2.63,3.214,5.389a19.818,19.818,0,0,1,1.7,3.841c.621,2.143.605,4.431,1.072,6.616.536,2.572,1.789,5.025,1.789,7.661a11.015,11.015,0,0,1-2.261,6.3,29.907,29.907,0,0,1-4.725,4.875,100.518,100.518,0,0,1-6.686-32.793,11.5,11.5,0,0,1,.5-4.607c.348-.911,2.02-3.407,3.1-2.427.391.359.493,1.977.734,2.518A19.367,19.367,0,0,0,710.508,573.409Z" transform="translate(-374.603 -294.304)" fill="#2f2e41"/>
  <path id="Path_108" data-name="Path 108" d="M710.508,573.409q1.714,2.63,3.214,5.389a19.818,19.818,0,0,1,1.7,3.841c.621,2.143.605,4.431,1.072,6.616.536,2.572,1.789,5.025,1.789,7.661a11.015,11.015,0,0,1-2.261,6.3,29.907,29.907,0,0,1-4.725,4.875,100.518,100.518,0,0,1-6.686-32.793,11.5,11.5,0,0,1,.5-4.607c.348-.911,2.02-3.407,3.1-2.427.391.359.493,1.977.734,2.518A19.367,19.367,0,0,0,710.508,573.409Z" transform="translate(-374.603 -294.304)" opacity="0.1"/>
  <path id="Path_109" data-name="Path 109" d="M406.214,428.59c-4.238,4.232-4.747,6.1-7.291,6.938s-11.7,5.582-8.824,10.838l7.736,5.111.225.15,1.184,3.557-11.7,20.83s-19.287-8.818-21.178,4.227-.691,16.608-1.2,23.573.166,8.979-1.532,8.979-2.368-4.575-2.368-4.575-.107-.209-.295-.6c-2.523-5.245-19.651-43.749,7.784-70.214,0,0,12.708-.836,15.767-15.408,2.111-10.072,9.493-9.2,14.4-7.152a16.274,16.274,0,0,1,4.4,2.588,21.692,21.692,0,0,1,3.156,3.75C407.88,423.387,408.641,426.157,406.214,428.59Z" transform="translate(-211.552 -222.576)" fill="#d0d2d5"/>
  <path id="Path_110" data-name="Path 110" d="M403.61,484.523l1.184,3.557-11.7,20.83s-19.287-8.818-21.178,4.227-.691,16.608-1.2,23.572.166,8.979-1.532,8.979-2.368-4.575-2.368-4.575-.107-.209-.295-.6c-.852-6.515-5.17-44.622,10.484-42.6,0,0,12.7,5.936,14.733,3.568,1.607-1.875,8.743-12.66,11.647-17.085Z" transform="translate(-217.102 -255.472)" opacity="0.1"/>
  <path id="Path_111" data-name="Path 111" d="M432.282,422.252l-7.736,8.792s-8.984,12.022-10.849,11.513a8.692,8.692,0,0,0-1.7-.2,3.3,3.3,0,0,1-2.143-5.561c3.064-3.214,8.711-9.317,9.081-10.672s3.964-7.3,5.765-10.206a16.278,16.278,0,0,1,4.4,2.588A21.692,21.692,0,0,1,432.282,422.252Z" transform="translate(-237.352 -223.68)" opacity="0.1"/>
  <path id="Path_112" data-name="Path 112" d="M654.678,583.276c-1.313,2.625-8.036,12.472-10.977,16.774l-1.377,2.025s-.536,3.557-9.317-.852-215.089-91.462-215.089-91.462l-1.4-4.2L426.7,490.32l226.12,87.363S656.377,579.885,654.678,583.276Z" transform="translate(-240.867 -258.221)" fill="#454b69"/>
  <path id="Path_113" data-name="Path 113" d="M643.7,613.259l-1.377,2.025s-.536,3.557-9.317-.852S417.918,522.97,417.918,522.97l-1.4-4.2Z" transform="translate(-240.867 -271.429)" opacity="0.1"/>
  <path id="Path_114" data-name="Path 114" d="M601.532,588.867a7.518,7.518,0,0,0-6.049,1.184,4.977,4.977,0,0,0-1.736,3.3c-.139,1.484.723,3.247,2.213,3.359a7.038,7.038,0,0,0,1.071-.07,16.005,16.005,0,0,1,2.807.236,11.459,11.459,0,0,0,9.766-3.943c1.281-1.607-.407-2.3-1.918-2.625C605.619,589.869,603.6,589.2,601.532,588.867Z" transform="translate(-323.139 -303.901)" fill="#fbbebe"/>
  <path id="Path_115" data-name="Path 115" d="M673.394,667.555l1.329,9.44a14.364,14.364,0,0,1,.2,2.952c-.155,2.223-1.339,4.216-2.191,6.274s-1.372,4.522-.241,6.429c.348.595.836,1.1,1.152,1.72a6.924,6.924,0,0,1,.536,3.016l.364,13.393a84.28,84.28,0,0,0,12.418-.07.691.691,0,0,0,.45-.139.728.728,0,0,0,.155-.488c.182-3.134-.364-6.273-.187-9.408.064-1.147.225-2.288.246-3.439.064-4.666-2.239-9.236-1.543-13.849a30.552,30.552,0,0,1,.857-3.445c2.2-8.036,1.736-16.479,1.248-24.778a.585.585,0,0,0-.107-.375.57.57,0,0,0-.289-.155,15.242,15.242,0,0,0-13.811,2.625c-.584.471-2.057.927-2.443,1.489-.536.782.166,1.564.477,2.395A30.478,30.478,0,0,1,673.394,667.555Z" transform="translate(-359.171 -334.206)" fill="#3f3d56"/>
  <path id="Path_116" data-name="Path 116" d="M673.394,667.555l1.329,9.44a14.364,14.364,0,0,1,.2,2.952c-.155,2.223-1.339,4.216-2.191,6.274s-1.372,4.522-.241,6.429c.348.595.836,1.1,1.152,1.72a6.924,6.924,0,0,1,.536,3.016l.364,13.393a84.28,84.28,0,0,0,12.418-.07.691.691,0,0,0,.45-.139.728.728,0,0,0,.155-.488c.182-3.134-.364-6.273-.187-9.408.064-1.147.225-2.288.246-3.439.064-4.666-2.239-9.236-1.543-13.849a30.552,30.552,0,0,1,.857-3.445c2.2-8.036,1.736-16.479,1.248-24.778a.585.585,0,0,0-.107-.375.57.57,0,0,0-.289-.155,15.242,15.242,0,0,0-13.811,2.625c-.584.471-2.057.927-2.443,1.489-.536.782.166,1.564.477,2.395A30.478,30.478,0,0,1,673.394,667.555Z" transform="translate(-359.171 -334.206)" opacity="0.1"/>
  <path id="Path_117" data-name="Path 117" d="M704.275,661.875a23.22,23.22,0,0,0-1.843,3.911c-.975,3.691,1.548,7.5,1.248,11.283-.1,1.195-.466,2.357-.493,3.552a3.314,3.314,0,0,0,1.473,3.075c.713.364,1.607.327,2.277.745,1.13.691,1.259,2.261,1.146,3.579s-.3,2.791.536,3.82c.638.8,1.731,1.109,2.416,1.864a9.19,9.19,0,0,1,1.034,1.747c1.023,1.789,2.893,2.882,4.425,4.286s2.829,3.461,2.143,5.406c-.5,1.425-1.918,2.3-3.279,2.973a34.781,34.781,0,0,1-7.806,2.759,1.884,1.884,0,0,1-.895.048,1.912,1.912,0,0,1-.782-.536c-1.581-1.548-3.215-3.172-3.943-5.256a5.39,5.39,0,0,0-.6-1.436c-.836-1.173-2.6-1.13-3.788-1.939-1.393-.948-1.73-2.829-2.641-4.248s-2.245-2.266-3.215-3.514c-1.639-2.079-2.041-4.854-3.214-7.227-.5-1.007-1.136-1.95-1.532-3a16.378,16.378,0,0,1-.734-3.879c-.755-6.257-2.679-12.558-1.468-18.751.268-1.361.68-2.679.852-4.082.295-2.427-.171-4.913.188-7.334a2.019,2.019,0,0,1,.809-1.559,2.146,2.146,0,0,1,.922-.187,62.832,62.832,0,0,1,9.525.214c1.607.155,3.407.482,4.372,1.795.82,1.125.777,2.63,1.039,4,.327,1.682,1.179,2.6,2.073,3.916S704.934,660.514,704.275,661.875Z" transform="translate(-365.21 -331.371)" fill="#3f3d56"/>
  <path id="Path_118" data-name="Path 118" d="M671.291,753.331a3.759,3.759,0,0,1,2.438.482c.814.67.825,1.9.7,2.941a44.148,44.148,0,0,1-2.293,8.572l-2.85,8.363a19.637,19.637,0,0,0-1,3.686c-.279,2.143.15,4.286.2,6.429a5.037,5.037,0,0,1-.739,3.123c-1.211,1.559-3.573,1.377-5.518,1.071l-9.488-1.607a11.287,11.287,0,0,1-2.347-.573,16.382,16.382,0,0,1-2.277-1.28,35.047,35.047,0,0,0-5.893-2.679c-.889-.332-1.886-.755-2.207-1.65a2.313,2.313,0,0,1,1.516-2.679,8.21,8.21,0,0,1,3.359-.289,25.183,25.183,0,0,0,8.25-1.114A5.218,5.218,0,0,0,655.32,775a5.358,5.358,0,0,0,1.254-2.523,37.6,37.6,0,0,0,1.436-8.572c.112-2.143.037-4.286.123-6.429.054-1.27-.07-5.357,1.045-6.231.852-.653,4.356,1.152,5.507,1.414A26.788,26.788,0,0,0,671.291,753.331Z" transform="translate(-344.585 -379.293)" fill="#2f2e41"/>
  <path id="Path_119" data-name="Path 119" d="M738.2,758.481c.927,3.07,1.071,6.316,1.672,9.472s1.661,6.375,4,8.572a5.286,5.286,0,0,1,1.163,1.286,2.711,2.711,0,0,1-.4,2.8,7.031,7.031,0,0,1-2.352,1.805,54.554,54.554,0,0,1-19.721,5.791,8.308,8.308,0,0,1-3.654-.134,3.013,3.013,0,0,1-2.18-2.679,1.367,1.367,0,0,1,.321-.927,2,2,0,0,1,.723-.423,21.332,21.332,0,0,0,7.05-4.088c1.955-1.918,3.182-4.822,2.427-7.425a14.691,14.691,0,0,0-1.805-3.434,58.041,58.041,0,0,1-2.679-5.191l-2.357-4.945a12.968,12.968,0,0,1-1.505-4.532,21.748,21.748,0,0,0,8.69-1.393,13.665,13.665,0,0,0,3.573-2.143c.911-.761,1.741-2.181,2.968-1.189.986.793,1.607,3.027,2.186,4.157A30.539,30.539,0,0,1,738.2,758.481Z" transform="translate(-380.241 -378.485)" fill="#2f2e41"/>
  <path id="Path_120" data-name="Path 120" d="M682.914,533.88c.236,2.057,2.229,3.413,4.131,4.227l-12.038,3.841c.777-1.489.15-3.311-.622-4.822a27.265,27.265,0,0,0-2.143-3.434c-.118-.166-.252-.375-.166-.568a.6.6,0,0,1,.338-.263,30.269,30.269,0,0,1,7.731-2.646c.782-.113,2.261-.423,2.845.37S682.8,532.932,682.914,533.88Z" transform="translate(-359.498 -276.671)" fill="#fbbebe"/>
  <path id="Path_121" data-name="Path 121" d="M682.914,533.88c.236,2.057,2.229,3.413,4.131,4.227l-12.038,3.841c.777-1.489.15-3.311-.622-4.822a27.265,27.265,0,0,0-2.143-3.434c-.118-.166-.252-.375-.166-.568a.6.6,0,0,1,.338-.263,30.269,30.269,0,0,1,7.731-2.646c.782-.113,2.261-.423,2.845.37S682.8,532.932,682.914,533.88Z" transform="translate(-359.498 -276.671)" opacity="0.1"/>
  <circle id="Ellipse_29" data-name="Ellipse 29" cx="9.44" cy="9.44" r="9.44" transform="translate(306.98 239.996)" fill="#fbbebe"/>
  <path id="Path_122" data-name="Path 122" d="M663.3,610.247a4.169,4.169,0,0,0,3.938,1.071c3.295-.536,5.99-2.963,9.215-3.836,3.954-1.072,8.138.305,11.872,1.993s7.447,3.75,11.529,4.039c-3.691-8.229-1.58-18.129-5.111-26.428-.862-2.03-2.068-3.986-2.261-6.182-.241-2.727,1.12-5.358,1.329-8.068a19.63,19.63,0,0,0-1.232-7.125L690,557.224a32.5,32.5,0,0,0-3.825-9.108c-.691-1-.9-3.032-1.95-3.638-2.293-1.323-5.77.343-8.256.434s-4.752,1.859-6.2,3.857a24.8,24.8,0,0,0-3.214,7.109,67.59,67.59,0,0,0-2.855,11.374c-.081.579-.15,1.157-.2,1.741-.536,5.5.246,11.036.289,16.565v.037c.054,7.013-1.071,13.983-1.28,20.99A5.6,5.6,0,0,0,663.3,610.247Z" transform="translate(-355.061 -283.129)" fill="#2f2e41"/>
  <path id="Path_123" data-name="Path 123" d="M664.509,590.38a12.087,12.087,0,0,0,4.956-2.968,20.708,20.708,0,0,0,3.289-3.75,26.712,26.712,0,0,0,2.834-5.931,69.3,69.3,0,0,0,3.75-17.288c.139-1.607.182-3.332-.777-4.607a3.879,3.879,0,0,0-4.688-1.136,7.768,7.768,0,0,0-2.845,3.059,39.514,39.514,0,0,0-3.991,7.4c-.429,1.168-.745,2.368-1.162,3.541a32.681,32.681,0,0,1-1.468,3.391c-.08.579-.15,1.157-.2,1.741C663.705,579.338,664.466,584.851,664.509,590.38Z" transform="translate(-355.778 -287.943)" opacity="0.1"/>
  <path id="Path_124" data-name="Path 124" d="M656.61,553.9c.959,1.275.916,3.016.782,4.6a69.206,69.206,0,0,1-3.75,17.288,26.484,26.484,0,0,1-2.834,5.979,20.933,20.933,0,0,1-3.289,3.75c-1.822,1.661-4.039,3.145-6.509,3.166a12.408,12.408,0,0,1-4.05-.884l-20.117-6.847c-.2-1.146.606-2.486.986-3.589l1.071-3.177a4.04,4.04,0,0,1,1.457-2.3c.8-.477,2.063.177,2.727.707s1.168,1.227,1.822,1.768a10.291,10.291,0,0,0,4.447,1.768l4.516,1.013a18.863,18.863,0,0,0,5.025.67c1.259-3.847,3.654-7.232,5.009-11.047.418-1.168.734-2.373,1.168-3.541a39.359,39.359,0,0,1,3.991-7.4,7.764,7.764,0,0,1,2.845-3.059A3.874,3.874,0,0,1,656.61,553.9Z" transform="translate(-333.853 -287.038)" fill="#2f2e41"/>
  <path id="Path_125" data-name="Path 125" d="M673.327,513.251a4.757,4.757,0,0,0-.568-1.768,1.484,1.484,0,0,0-1.607-.707c-.943.295-1.259,1.752-2.245,1.8-.664.032-1.141-.643-1.35-1.275a3.887,3.887,0,0,0-.82-1.8,3.053,3.053,0,0,0-1.168-.536c-2.288-.723-4.65-2.057-5.411-4.334a2.593,2.593,0,0,1-.123-1.452c.348-1.441,2.143-1.875,3.509-2.395s2.679-1.409,4.018-2.084a6.6,6.6,0,0,1,4.366-.809,22.778,22.778,0,0,1,2.2.82c2.218.771,4.934.413,6.654,2.014a6.873,6.873,0,0,1,1.607,2.807c1.2,3.332,1.961,7.286-.027,10.211-1.227,1.805-2.416,3.868-4.773,4.088C674.848,518.062,673.761,515.576,673.327,513.251Z" transform="translate(-353.897 -261.683)" fill="#2f2e41"/>
  <g id="Group_7" data-name="Group 7" transform="translate(306.108 239.723)" opacity="0.1">
    <path id="Path_126" data-name="Path 126" d="M669.156,513.309a3.935,3.935,0,0,0-.814-1.8,3.053,3.053,0,0,0-1.168-.536c-2.293-.723-4.65-2.057-5.416-4.334a2.643,2.643,0,0,1-.118-1.452,1.815,1.815,0,0,1,.284-.638,2.807,2.807,0,0,0-1.848,1.773,2.6,2.6,0,0,0,.123,1.452c.761,2.277,3.123,3.611,5.411,4.334a3.056,3.056,0,0,1,1.168.536,3.917,3.917,0,0,1,.82,1.8c.214.638.686,1.307,1.35,1.275s.986-.637,1.409-1.146A1.7,1.7,0,0,1,669.156,513.309Z" transform="translate(-660.023 -504.55)"/>
    <path id="Path_127" data-name="Path 127" d="M689.193,526.93c-2.754.252-3.841-2.255-4.286-4.565a4.658,4.658,0,0,0-.536-1.768,1.49,1.49,0,0,0-1.607-.707,2.85,2.85,0,0,0-1.184,1.072,1.608,1.608,0,0,1,1.211.75,4.76,4.76,0,0,1,.568,1.768c.434,2.309,1.521,4.822,4.286,4.564a4.42,4.42,0,0,0,2.829-1.468A4,4,0,0,1,689.193,526.93Z" transform="translate(-670.031 -511.656)"/>
  </g>
  <ellipse id="Ellipse_30" data-name="Ellipse 30" cx="17.299" cy="3.327" rx="17.299" ry="3.327" transform="translate(418.317 348.001)" fill="#6c63ff"/>
  <ellipse id="Ellipse_31" data-name="Ellipse 31" cx="2.014" cy="2.636" rx="2.014" ry="2.636" transform="translate(433.313 347.278)" fill="#3f3d56"/>
  <ellipse id="Ellipse_32" data-name="Ellipse 32" cx="2.014" cy="2.636" rx="2.014" ry="2.636" transform="translate(433.313 344.053)" fill="#3f3d56"/>
  <ellipse id="Ellipse_33" data-name="Ellipse 33" cx="2.014" cy="2.636" rx="2.014" ry="2.636" transform="translate(433.313 340.833)" fill="#3f3d56"/>
  <ellipse id="Ellipse_34" data-name="Ellipse 34" cx="2.014" cy="2.636" rx="2.014" ry="2.636" transform="translate(433.313 337.608)" fill="#3f3d56"/>
  <ellipse id="Ellipse_35" data-name="Ellipse 35" cx="2.014" cy="2.636" rx="2.014" ry="2.636" transform="translate(433.313 334.383)" fill="#3f3d56"/>
  <ellipse id="Ellipse_36" data-name="Ellipse 36" cx="2.014" cy="2.636" rx="2.014" ry="2.636" transform="translate(433.313 331.163)" fill="#3f3d56"/>
  <ellipse id="Ellipse_37" data-name="Ellipse 37" cx="2.014" cy="2.636" rx="2.014" ry="2.636" transform="translate(433.313 327.938)" fill="#3f3d56"/>
  <path id="Path_128" data-name="Path 128" d="M900.367,619.481a9.751,9.751,0,0,0,.75-1.1l-5.293-.868,5.727.038a9.7,9.7,0,0,0,.182-7.645l-7.682,3.986,7.082-5.207a9.643,9.643,0,1,0-15.922,10.8,9.6,9.6,0,0,0-1.1,1.757l6.874,3.573-7.329-2.459a9.643,9.643,0,0,0,1.559,9.043,9.643,9.643,0,1,0,15.167,0,9.643,9.643,0,0,0,0-11.931Z" transform="translate(-457.502 -310.943)" fill="#6c63ff"/>
  <path id="Path_129" data-name="Path 129" d="M883.12,643.977a9.6,9.6,0,0,0,2.079,5.968,9.643,9.643,0,1,0,15.167,0C901.646,648.3,883.12,642.895,883.12,643.977Z" transform="translate(-457.49 -329.491)" opacity="0.1"/>
  <ellipse id="Ellipse_38" data-name="Ellipse 38" cx="24.907" cy="4.79" rx="24.907" ry="4.79" transform="translate(54.608 411.412)" fill="#6c63ff"/>
  <ellipse id="Ellipse_39" data-name="Ellipse 39" cx="2.898" cy="3.798" rx="2.898" ry="3.798" transform="translate(76.198 410.367)" fill="#3f3d56"/>
  <ellipse id="Ellipse_40" data-name="Ellipse 40" cx="2.898" cy="3.798" rx="2.898" ry="3.798" transform="translate(76.198 405.727)" fill="#3f3d56"/>
  <ellipse id="Ellipse_41" data-name="Ellipse 41" cx="2.898" cy="3.798" rx="2.898" ry="3.798" transform="translate(76.198 401.088)" fill="#3f3d56"/>
  <ellipse id="Ellipse_42" data-name="Ellipse 42" cx="2.898" cy="3.798" rx="2.898" ry="3.798" transform="translate(76.198 396.448)" fill="#3f3d56"/>
  <ellipse id="Ellipse_43" data-name="Ellipse 43" cx="2.898" cy="3.798" rx="2.898" ry="3.798" transform="translate(76.198 391.809)" fill="#3f3d56"/>
  <ellipse id="Ellipse_44" data-name="Ellipse 44" cx="2.898" cy="3.798" rx="2.898" ry="3.798" transform="translate(76.198 387.164)" fill="#3f3d56"/>
  <ellipse id="Ellipse_45" data-name="Ellipse 45" cx="2.898" cy="3.798" rx="2.898" ry="3.798" transform="translate(76.198 382.525)" fill="#3f3d56"/>
  <path id="Path_130" data-name="Path 130" d="M235.019,699.425a14.576,14.576,0,0,0,1.071-1.607l-7.618-1.254,8.24.064a13.93,13.93,0,0,0,.263-11.01l-11.047,5.754,10.179-7.5a13.892,13.892,0,1,0-22.946,15.537,13.83,13.83,0,0,0-1.607,2.529l9.9,5.143L210.9,703.54a13.892,13.892,0,0,0,2.282,13.067,13.892,13.892,0,1,0,21.837,0,13.886,13.886,0,0,0,0-17.176Z" transform="translate(-145.069 -344.851)" fill="#6c63ff"/>
  <path id="Path_131" data-name="Path 131" d="M210.239,734.818a13.847,13.847,0,0,0,2.972,8.57,13.892,13.892,0,1,0,21.838,0C236.9,741.022,210.239,733.238,210.239,734.818Z" transform="translate(-145.098 -371.634)" opacity="0.1"/>
</svg>
